<svg version="1.1" id="Layer_1" xmlns="http://www.w3.org/2000/svg" xmlns:xlink="http://www.w3.org/1999/xlink" x="0px" y="0px"
	 width="100%" viewBox="0 0 300 300" enable-background="new 0 0 300 300" xml:space="preserve">
<path fill="#111827" opacity="1.000000" stroke="none" 
	d="
M273.000000,301.000000 
	C182.000015,301.000000 91.500031,301.000000 1.000036,301.000000 
	C1.000024,201.000031 1.000024,101.000069 1.000012,1.000077 
	C100.999947,1.000051 200.999893,1.000051 300.999878,1.000026 
	C300.999939,100.999931 300.999939,200.999863 300.999969,300.999878 
	C291.833344,301.000000 282.666656,301.000000 273.000000,301.000000 
M167.321289,125.813782 
	C166.887711,125.884552 166.454147,125.955315 165.273865,126.099648 
	C159.713577,127.120804 155.824295,130.775681 155.374512,135.942413 
	C154.593414,144.914948 154.606873,154.047302 155.342407,163.026169 
	C155.762665,168.156403 159.318100,172.069611 165.264389,173.051910 
	C165.264389,173.051910 165.506149,173.005295 165.773102,173.188599 
	C165.956177,173.279755 166.149734,173.331039 167.243622,173.717041 
	C176.859283,174.548248 183.618774,170.285614 184.643448,161.445221 
	C185.515564,153.920929 185.593552,146.153595 184.792313,138.624741 
	C183.802948,129.328232 178.521927,125.577072 168.500534,125.745445 
	C168.327881,125.775810 168.155243,125.806175 167.321289,125.813782 
M46.512001,172.479523 
	C47.386562,171.222260 48.561539,170.078674 49.087151,168.689392 
	C52.623138,159.343124 55.998924,149.936386 59.486080,140.571381 
	C60.067974,139.008682 60.939873,137.553970 61.677761,136.049347 
	C62.168312,136.077347 62.658867,136.105347 63.149418,136.133347 
	C67.206261,147.197449 71.263107,158.261551 75.869133,170.823456 
	C66.943657,170.823456 59.725056,170.823456 52.506462,170.823456 
	C52.495483,171.404465 52.484501,171.985458 52.473522,172.566467 
	C53.823311,172.773880 55.171543,173.147324 56.523151,173.159958 
	C62.354622,173.214478 68.190567,173.034760 74.018028,173.192749 
	C78.382744,173.311081 79.177856,171.762085 77.670227,167.768402 
	C73.141640,155.772263 68.902527,143.667053 64.492462,131.625656 
	C64.026321,130.352890 63.176247,129.220734 62.134029,127.363533 
	C61.114197,129.192337 60.431400,130.116852 60.046764,131.152130 
	C55.348125,143.799057 50.672028,156.454529 46.070148,169.136841 
	C45.728401,170.078674 46.000969,171.243408 46.512001,172.479523 
M218.713928,170.523346 
	C219.596436,171.137024 220.478928,171.750702 221.361420,172.364395 
	C221.859039,171.264572 222.778137,170.168793 222.788773,169.064285 
	C222.889832,158.579178 222.857559,148.092438 222.787064,137.606689 
	C222.781555,136.789612 222.198013,135.976425 221.883133,135.161423 
	C218.407639,144.166245 221.753906,153.855347 218.821930,162.730667 
	C218.322784,162.839844 217.823639,162.949005 217.324493,163.058182 
	C211.126602,153.424255 204.928726,143.790314 198.482513,133.770401 
	C195.594955,138.635712 195.626633,168.948242 199.375153,172.218536 
	C199.375153,162.912491 199.375153,153.606445 199.375153,144.300385 
	C200.159149,144.118423 200.943146,143.936447 201.727142,143.754471 
	C207.272095,152.490311 212.817047,161.226151 218.713928,170.523346 
M251.421143,145.950333 
	C248.909668,148.136841 246.398193,150.323349 243.886719,152.509842 
	C244.389465,153.101685 244.892197,153.693512 245.394943,154.285355 
	C250.669586,149.773209 255.995255,145.317093 261.123962,140.644760 
	C261.543427,140.262619 260.977814,138.089935 260.264984,137.284851 
	C253.826248,130.012726 237.265549,133.220200 235.049942,142.614532 
	C233.601791,148.754776 233.576141,155.471512 234.195374,161.804657 
	C235.256332,172.655731 247.141541,177.577026 258.081635,171.344879 
	C258.949951,170.850220 259.351776,169.536697 259.970398,168.603729 
	C258.166138,168.413940 257.293976,169.126648 256.300995,169.566528 
	C244.719925,174.696564 237.215805,170.244446 236.149597,158.710007 
	C235.814743,155.087326 235.834625,151.371628 236.219757,147.754684 
	C237.127197,139.232864 241.338135,135.618851 249.906219,136.254868 
	C252.502930,136.447617 254.995880,138.038391 257.536346,138.988815 
	C256.074158,140.843094 254.626022,142.708771 253.138229,144.542267 
	C252.830383,144.921661 252.375122,145.181427 251.421143,145.950333 
M88.966438,144.633118 
	C89.682472,142.155228 90.178627,137.658554 91.152985,137.552429 
	C95.155533,137.116470 99.543991,137.310242 103.337845,138.601868 
	C108.187439,140.252914 109.391510,146.716690 105.124695,149.437180 
	C99.616753,152.949005 101.460670,156.176849 103.554810,160.178528 
	C105.327293,163.565552 106.945168,167.038528 108.494217,170.534286 
	C108.941376,171.543396 108.913971,172.762802 109.104141,173.885803 
	C109.961494,173.154022 110.818840,172.422241 111.676193,171.690475 
	C109.538979,167.102081 107.122520,162.614410 105.412125,157.872101 
	C104.792130,156.153046 105.135963,153.148087 106.297569,151.905212 
	C109.456512,148.525284 111.224915,145.047897 109.175850,140.691208 
	C107.108231,136.295074 103.055290,134.830688 98.452782,134.749802 
	C95.962227,134.706009 93.455063,135.042633 90.979088,134.869278 
	C87.514709,134.626724 86.248154,136.053940 86.289215,139.469528 
	C86.407188,149.282455 86.299606,159.097946 86.357224,168.911972 
	C86.363686,170.012726 86.860489,171.110611 87.129906,172.209824 
	C87.741890,172.162186 88.353882,172.114532 88.965866,172.066895 
	C88.965866,163.244064 88.965866,154.421234 88.966438,144.633118 
M147.403259,171.924271 
	C142.827057,167.161697 138.285278,162.365402 133.665405,157.645584 
	C128.595245,152.465729 128.552322,152.484848 133.529480,147.527832 
	C136.710358,144.359848 139.977158,141.276657 143.104263,138.057190 
	C143.943054,137.193619 144.411179,135.970016 145.049454,134.911682 
	C144.610168,134.580811 144.170883,134.249939 143.731598,133.919067 
	C138.557526,138.990570 133.516342,144.208450 128.156067,149.074860 
	C125.262154,151.702133 125.684441,153.608383 128.208466,156.019379 
	C133.378220,160.957626 138.371735,166.081177 143.574677,170.983109 
	C144.444260,171.802383 146.003433,171.889694 147.403259,171.924271 
M123.205246,147.522690 
	C123.085701,143.475800 122.966156,139.428894 122.846619,135.382004 
	C122.405739,135.430771 121.964867,135.479523 121.523987,135.528290 
	C121.523987,147.546448 121.523987,159.564606 121.523987,171.582764 
	C122.084480,171.590836 122.644966,171.598907 123.205460,171.606979 
	C123.205460,163.909332 123.205460,156.211700 123.205246,147.522690 
z"/>
<path fill="#365E8A" opacity="1.000000" stroke="none" 
	d="
M46.249973,172.392029 
	C46.000969,171.243408 45.728401,170.078674 46.070148,169.136841 
	C50.672028,156.454529 55.348125,143.799057 60.046764,131.152130 
	C60.431400,130.116852 61.114197,129.192337 62.134029,127.363533 
	C63.176247,129.220734 64.026321,130.352890 64.492462,131.625656 
	C68.902527,143.667053 73.141640,155.772263 77.670227,167.768402 
	C79.177856,171.762085 78.382744,173.311081 74.018028,173.192749 
	C68.190567,173.034760 62.354622,173.214478 56.523151,173.159958 
	C55.171543,173.147324 53.823311,172.773880 52.473522,172.566467 
	C52.484501,171.985458 52.495483,171.404465 52.506462,170.823456 
	C59.725056,170.823456 66.943657,170.823456 75.869133,170.823456 
	C71.263107,158.261551 67.206261,147.197449 63.149418,136.133347 
	C62.658867,136.105347 62.168312,136.077347 61.677761,136.049347 
	C60.939873,137.553970 60.067974,139.008682 59.486080,140.571381 
	C55.998924,149.936386 52.623138,159.343124 49.087151,168.689392 
	C48.561539,170.078674 47.386562,171.222260 46.249973,172.392029 
z"/>
<path fill="#803144" opacity="1.000000" stroke="none" 
	d="
M218.537964,170.242676 
	C212.817047,161.226151 207.272095,152.490311 201.727142,143.754471 
	C200.943146,143.936447 200.159149,144.118423 199.375153,144.300385 
	C199.375153,153.606445 199.375153,162.912491 199.375153,172.218536 
	C195.626633,168.948242 195.594955,138.635712 198.482513,133.770401 
	C204.928726,143.790314 211.126602,153.424255 217.324493,163.058182 
	C217.823639,162.949005 218.322784,162.839844 218.821930,162.730667 
	C221.753906,153.855347 218.407639,144.166245 221.883133,135.161423 
	C222.198013,135.976425 222.781555,136.789612 222.787064,137.606689 
	C222.857559,148.092438 222.889832,158.579178 222.788773,169.064285 
	C222.778137,170.168793 221.859039,171.264572 221.361420,172.364395 
	C220.478928,171.750702 219.596436,171.137024 218.537964,170.242676 
z"/>
<path fill="#9B2836" opacity="1.000000" stroke="none" 
	d="
M251.704468,145.723328 
	C252.375122,145.181427 252.830383,144.921661 253.138229,144.542267 
	C254.626022,142.708771 256.074158,140.843094 257.536346,138.988815 
	C254.995880,138.038391 252.502930,136.447617 249.906219,136.254868 
	C241.338135,135.618851 237.127197,139.232864 236.219757,147.754684 
	C235.834625,151.371628 235.814743,155.087326 236.149597,158.710007 
	C237.215805,170.244446 244.719925,174.696564 256.300995,169.566528 
	C257.293976,169.126648 258.166138,168.413940 259.970398,168.603729 
	C259.351776,169.536697 258.949951,170.850220 258.081635,171.344879 
	C247.141541,177.577026 235.256332,172.655731 234.195374,161.804657 
	C233.576141,155.471512 233.601791,148.754776 235.049942,142.614532 
	C237.265549,133.220200 253.826248,130.012726 260.264984,137.284851 
	C260.977814,138.089935 261.543427,140.262619 261.123962,140.644760 
	C255.995255,145.317093 250.669586,149.773209 245.394943,154.285355 
	C244.892197,153.693512 244.389465,153.101685 243.886719,152.509842 
	C246.398193,150.323349 248.909668,148.136841 251.704468,145.723328 
z"/>
<path fill="#4B5A84" opacity="1.000000" stroke="none" 
	d="
M88.966156,145.115753 
	C88.965866,154.421234 88.965866,163.244064 88.965866,172.066895 
	C88.353882,172.114532 87.741890,172.162186 87.129906,172.209824 
	C86.860489,171.110611 86.363686,170.012726 86.357224,168.911972 
	C86.299606,159.097946 86.407188,149.282455 86.289215,139.469528 
	C86.248154,136.053940 87.514709,134.626724 90.979088,134.869278 
	C93.455063,135.042633 95.962227,134.706009 98.452782,134.749802 
	C103.055290,134.830688 107.108231,136.295074 109.175850,140.691208 
	C111.224915,145.047897 109.456512,148.525284 106.297569,151.905212 
	C105.135963,153.148087 104.792130,156.153046 105.412125,157.872101 
	C107.122520,162.614410 109.538979,167.102081 111.676193,171.690475 
	C110.818840,172.422241 109.961494,173.154022 109.104141,173.885803 
	C108.913971,172.762802 108.941376,171.543396 108.494217,170.534286 
	C106.945168,167.038528 105.327293,163.565552 103.554810,160.178528 
	C101.460670,156.176849 99.616753,152.949005 105.124695,149.437180 
	C109.391510,146.716690 108.187439,140.252914 103.337845,138.601868 
	C99.543991,137.310242 95.155533,137.116470 91.152985,137.552429 
	C90.178627,137.658554 89.682472,142.155228 88.966156,145.115753 
z"/>
<path fill="#723D56" opacity="1.000000" stroke="none" 
	d="
M165.506149,173.005295 
	C165.506149,173.005295 165.264389,173.051910 165.154846,172.650803 
	C165.057739,171.765640 165.070190,171.281586 165.427887,170.935196 
	C174.061600,172.936523 180.922348,169.005188 181.969162,160.983124 
	C182.799957,154.616409 182.997864,148.064758 182.557648,141.658386 
	C181.886475,131.891037 178.740997,129.073746 169.011597,127.486435 
	C169.016861,126.686829 169.021927,126.229477 169.027008,125.772125 
	C178.521927,125.577072 183.802948,129.328232 184.792313,138.624741 
	C185.593552,146.153595 185.515564,153.920929 184.643448,161.445221 
	C183.618774,170.285614 176.859283,174.548248 166.670105,173.479218 
	C165.900787,173.160141 165.703979,173.081436 165.506149,173.005295 
z"/>
<path fill="#684461" opacity="1.000000" stroke="none" 
	d="
M147.323608,172.119751 
	C146.003433,171.889694 144.444260,171.802383 143.574677,170.983109 
	C138.371735,166.081177 133.378220,160.957626 128.208466,156.019379 
	C125.684441,153.608383 125.262154,151.702133 128.156067,149.074860 
	C133.516342,144.208450 138.557526,138.990570 143.731598,133.919067 
	C144.170883,134.249939 144.610168,134.580811 145.049454,134.911682 
	C144.411179,135.970016 143.943054,137.193619 143.104263,138.057190 
	C139.977158,141.276657 136.710358,144.359848 133.529480,147.527832 
	C128.552322,152.484848 128.595245,152.465729 133.665405,157.645584 
	C138.285278,162.365402 142.827057,167.161697 147.323608,172.119751 
z"/>
<path fill="#684461" opacity="1.000000" stroke="none" 
	d="
M165.082642,170.797531 
	C165.070190,171.281586 165.057739,171.765640 165.037720,172.612915 
	C159.318100,172.069611 155.762665,168.156403 155.342407,163.026169 
	C154.606873,154.047302 154.593414,144.914948 155.374512,135.942413 
	C155.824295,130.775681 159.713577,127.120804 165.771683,126.314896 
	C166.528381,127.031303 166.787247,127.532478 166.705566,128.143234 
	C160.348267,129.743881 157.397263,133.965073 157.065277,139.785400 
	C156.696915,146.243805 156.779938,152.746033 157.023926,159.215698 
	C157.228455,164.638977 159.893784,168.678299 165.082642,170.797531 
z"/>
<path fill="#4B5A84" opacity="1.000000" stroke="none" 
	d="
M123.205353,148.018372 
	C123.205460,156.211700 123.205460,163.909332 123.205460,171.606979 
	C122.644966,171.598907 122.084480,171.590836 121.523987,171.582764 
	C121.523987,159.564606 121.523987,147.546448 121.523987,135.528290 
	C121.964867,135.479523 122.405739,135.430771 122.846619,135.382004 
	C122.966156,139.428894 123.085701,143.475800 123.205353,148.018372 
z"/>
<path fill="#723D56" opacity="1.000000" stroke="none" 
	d="
M167.046112,128.033646 
	C166.787247,127.532478 166.528381,127.031303 166.145035,126.278107 
	C166.454147,125.955315 166.887711,125.884552 167.649933,126.175049 
	C167.972900,127.001610 167.967224,127.466904 167.735611,127.983887 
	C167.509674,128.035568 167.046127,128.033646 167.046112,128.033646 
z"/>
<path fill="#684461" opacity="1.000000" stroke="none" 
	d="
M167.961548,127.932205 
	C167.967224,127.466904 167.972900,127.001610 167.980591,126.186424 
	C168.155243,125.806175 168.327881,125.775810 168.763763,125.758789 
	C169.021927,126.229477 169.016861,126.686829 168.751007,127.531883 
	C168.313995,127.923790 168.137772,127.928001 167.961548,127.932205 
z"/>
<path fill="#684461" opacity="1.000000" stroke="none" 
	d="
M165.639618,173.096954 
	C165.703979,173.081436 165.900787,173.160141 166.225159,173.291931 
	C166.149734,173.331039 165.956177,173.279755 165.639618,173.096954 
z"/>
<path fill="#131928" opacity="1.000000" stroke="none" 
	d="
M167.735626,127.983887 
	C168.137772,127.928001 168.313995,127.923790 168.750824,127.874146 
	C178.740997,129.073746 181.886475,131.891037 182.557648,141.658386 
	C182.997864,148.064758 182.799957,154.616409 181.969162,160.983124 
	C180.922348,169.005188 174.061600,172.936523 165.427887,170.935196 
	C159.893784,168.678299 157.228455,164.638977 157.023926,159.215698 
	C156.779938,152.746033 156.696915,146.243805 157.065277,139.785400 
	C157.397263,133.965073 160.348267,129.743881 166.705566,128.143234 
	C167.046127,128.033646 167.509674,128.035568 167.735626,127.983887 
z"/>
</svg>