<?xml version="1.0" encoding="utf-8"?>
<!-- Generator: Adobe Illustrator 25.0.0, SVG Export Plug-In . SVG Version: 6.00 Build 0)  -->
<svg version="1.1" id="Layer_1" xmlns="http://www.w3.org/2000/svg" xmlns:xlink="http://www.w3.org/1999/xlink" x="0px" y="0px"
	 viewBox="0 0 172.8 172.8" style="enable-background:new 0 0 172.8 172.8;" xml:space="preserve">
<style type="text/css">
	.st0{fill:#FFFFFF;}
	.st1{opacity:0.52;}
	.st2{fill:url(#SVGID_1_);}
	.st3{opacity:0.47;}
	.st4{fill:url(#SVGID_2_);}
	.st5{opacity:0.45;}
	.st6{fill:url(#SVGID_3_);}
	.st7{filter:url(#Adobe_OpacityMaskFilter);}
	.st8{mask:url(#SVGID_4_);fill:url(#SVGID_5_);}
	.st9{opacity:0.74;}
	.st10{filter:url(#Adobe_OpacityMaskFilter_1_);}
	.st11{mask:url(#SVGID_6_);fill:url(#SVGID_7_);}
	.st12{fill:url(#SVGID_8_);}
	.st13{fill:url(#SVGID_9_);}
</style>
<g>
	<path class="st0" d="M-308.8,0.6c-46.7,0-84.5,38.1-84.5,85s37.8,85,84.5,85s84.5-38.1,84.5-85S-262.1,0.6-308.8,0.6z
		 M-260.4,144.6h-64c-1,0-1.8-0.8-1.8-1.8l0.2-8.9c0-1,0.8-1.7,1.8-1.3h45.6c1.2-0.4,2.1-1.6,1.7-2.8l-28.1-78.3
		c-0.6-1.6-2.7-1.6-3.3,0l-33.2,92c-0.3,0.7-0.9,1.2-1.7,1.1h-9.8c-1.2,0-2.1-1.2-1.7-2.3L-308.4,14c0.6-1.6,2.7-1.6,3.3,0
		l46.3,128.3C-258.4,143.4-259.2,144.7-260.4,144.6z"/>
	<g class="st1">
		
			<radialGradient id="SVGID_1_" cx="-308.9224" cy="22.7406" r="163.816" gradientTransform="matrix(1.0014 0 0 0.9988 1.837520e-02 -0.3849)" gradientUnits="userSpaceOnUse">
			<stop  offset="0" style="stop-color:#FFFFFF"/>
			<stop  offset="8.938220e-03" style="stop-color:#F5F8FC"/>
			<stop  offset="7.323171e-02" style="stop-color:#C8DCED"/>
			<stop  offset="0.1354" style="stop-color:#A5C8E4"/>
			<stop  offset="0.194" style="stop-color:#8DBCDE"/>
			<stop  offset="0.2478" style="stop-color:#7EB5DA"/>
			<stop  offset="0.2921" style="stop-color:#79B3D9"/>
			<stop  offset="0.6461" style="stop-color:#0069B0"/>
			<stop  offset="0.8409" style="stop-color:#14517E"/>
			<stop  offset="1" style="stop-color:#173C5A"/>
		</radialGradient>
		<path class="st2" d="M-308.8,0.6c-46.7,0-84.5,38.1-84.5,85s37.8,85,84.5,85s84.5-38.1,84.5-85S-262.1,0.6-308.8,0.6z
			 M-260.4,144.6h-64c-1,0-1.8-0.8-1.8-1.8l0.2-8.9c0-1,0.8-1.7,1.8-1.3h45.6c1.2-0.4,2.1-1.6,1.7-2.8l-28.1-78.3
			c-0.6-1.6-2.7-1.6-3.3,0l-33.2,92c-0.3,0.7-0.9,1.2-1.7,1.1h-9.8c-1.2,0-2.1-1.2-1.7-2.3L-308.4,14c0.6-1.6,2.7-1.6,3.3,0
			l46.3,128.3C-258.4,143.4-259.2,144.7-260.4,144.6z"/>
	</g>
	<g class="st3">
		
			<radialGradient id="SVGID_2_" cx="-311.3187" cy="26.3489" r="143.3388" gradientTransform="matrix(1.0014 0 0 0.9988 1.837520e-02 -0.3849)" gradientUnits="userSpaceOnUse">
			<stop  offset="0" style="stop-color:#FFFFFF"/>
			<stop  offset="1.100086e-02" style="stop-color:#F5F8FC"/>
			<stop  offset="9.013116e-02" style="stop-color:#C8DCED"/>
			<stop  offset="0.1666" style="stop-color:#A5C8E4"/>
			<stop  offset="0.2388" style="stop-color:#8DBCDE"/>
			<stop  offset="0.305" style="stop-color:#7EB5DA"/>
			<stop  offset="0.3596" style="stop-color:#79B3D9"/>
			<stop  offset="0.8539" style="stop-color:#0069B0"/>
			<stop  offset="0.8979" style="stop-color:#105386"/>
			<stop  offset="0.9977" style="stop-color:#061C32"/>
			<stop  offset="1" style="stop-color:#051B30"/>
		</radialGradient>
		<path class="st4" d="M-308.8,0.6c-46.7,0-84.5,38.1-84.5,85s37.8,85,84.5,85s84.5-38.1,84.5-85S-262.1,0.6-308.8,0.6z
			 M-260.4,144.6h-64c-1,0-1.8-0.8-1.8-1.8l0.2-8.9c0-1,0.8-1.7,1.8-1.3h45.6c1.2-0.4,2.1-1.6,1.7-2.8l-28.1-78.3
			c-0.6-1.6-2.7-1.6-3.3,0l-33.2,92c-0.3,0.7-0.9,1.2-1.7,1.1h-9.8c-1.2,0-2.1-1.2-1.7-2.3L-308.4,14c0.6-1.6,2.7-1.6,3.3,0
			l46.3,128.3C-258.4,143.4-259.2,144.7-260.4,144.6z"/>
	</g>
	<g class="st5">
		
			<radialGradient id="SVGID_3_" cx="-308.9224" cy="37.2249" r="145.6961" fx="-454.5908" fy="34.3816" gradientTransform="matrix(1.0014 0 0 0.9988 1.837520e-02 -0.3849)" gradientUnits="userSpaceOnUse">
			<stop  offset="0" style="stop-color:#FFFFFF"/>
			<stop  offset="1.736077e-02" style="stop-color:#F5F8FC"/>
			<stop  offset="0.1422" style="stop-color:#C8DCED"/>
			<stop  offset="0.263" style="stop-color:#A5C8E4"/>
			<stop  offset="0.3769" style="stop-color:#8DBCDE"/>
			<stop  offset="0.4813" style="stop-color:#7EB5DA"/>
			<stop  offset="0.5674" style="stop-color:#79B3D9"/>
			<stop  offset="0.8539" style="stop-color:#0069B0"/>
			<stop  offset="0.8979" style="stop-color:#105386"/>
			<stop  offset="0.9977" style="stop-color:#061C32"/>
			<stop  offset="1" style="stop-color:#051B30"/>
		</radialGradient>
		<path class="st6" d="M-308.8,0.6c-46.7,0-84.5,38.1-84.5,85s37.8,85,84.5,85s84.5-38.1,84.5-85S-262.1,0.6-308.8,0.6z
			 M-260.4,144.6h-64c-1,0-1.8-0.8-1.8-1.8l0.2-8.9c0-1,0.8-1.7,1.8-1.3h45.6c1.2-0.4,2.1-1.6,1.7-2.8l-28.1-78.3
			c-0.6-1.6-2.7-1.6-3.3,0l-33.2,92c-0.3,0.7-0.9,1.2-1.7,1.1h-9.8c-1.2,0-2.1-1.2-1.7-2.3L-308.4,14c0.6-1.6,2.7-1.6,3.3,0
			l46.3,128.3C-258.4,143.4-259.2,144.7-260.4,144.6z"/>
	</g>
	<g>
		<defs>
			<filter id="Adobe_OpacityMaskFilter" filterUnits="userSpaceOnUse" x="-393.3" y="0.6" width="169" height="170">
				<feFlood  style="flood-color:white;flood-opacity:1" result="back"/>
				<feBlend  in="SourceGraphic" in2="back" mode="normal"/>
			</filter>
		</defs>
		<mask maskUnits="userSpaceOnUse" x="-393.3" y="0.6" width="169" height="170" id="SVGID_4_">
			<g class="st7">
				
					<image style="overflow:visible;" width="721" height="726" xlink:href="A40B17BB.jpg"  transform="matrix(0.24 0 0 0.24 -395.2985 -1.5005)">
				</image>
			</g>
		</mask>
		<radialGradient id="SVGID_5_" cx="-310.6006" cy="24.6405" r="83.3491" gradientUnits="userSpaceOnUse">
			<stop  offset="0" style="stop-color:#FFFFFF"/>
			<stop  offset="1" style="stop-color:#C0C9DB"/>
		</radialGradient>
		<path class="st8" d="M-308.8,0.6c-46.7,0-84.5,38.1-84.5,85s37.8,85,84.5,85s84.5-38.1,84.5-85S-262.1,0.6-308.8,0.6z
			 M-260.4,144.6h-64c-1,0-1.8-0.8-1.8-1.8l0.2-8.9c0-1,0.8-1.7,1.8-1.3h45.6c1.2-0.4,2.1-1.6,1.7-2.8l-28.1-78.3
			c-0.6-1.6-2.7-1.6-3.3,0l-33.2,92c-0.3,0.7-0.9,1.2-1.7,1.1h-9.8c-1.2,0-2.1-1.2-1.7-2.3L-308.4,14c0.6-1.6,2.7-1.6,3.3,0
			l46.3,128.3C-258.4,143.4-259.2,144.7-260.4,144.6z"/>
	</g>
	<g class="st9">
		<defs>
			<filter id="Adobe_OpacityMaskFilter_1_" filterUnits="userSpaceOnUse" x="-393.3" y="0.6" width="169" height="170">
				<feFlood  style="flood-color:white;flood-opacity:1" result="back"/>
				<feBlend  in="SourceGraphic" in2="back" mode="normal"/>
			</filter>
		</defs>
		<mask maskUnits="userSpaceOnUse" x="-393.3" y="0.6" width="169" height="170" id="SVGID_6_">
			<g class="st10">
				
					<image style="overflow:visible;" width="721" height="726" xlink:href="A40B17B9.jpg"  transform="matrix(0.24 0 0 0.24 -395.2985 -1.5005)">
				</image>
			</g>
		</mask>
		<radialGradient id="SVGID_7_" cx="-306.9164" cy="135.5145" r="79.0521" gradientUnits="userSpaceOnUse">
			<stop  offset="0" style="stop-color:#FFFFFF"/>
			<stop  offset="1" style="stop-color:#79B3D9"/>
		</radialGradient>
		<path class="st11" d="M-308.8,0.6c-46.7,0-84.5,38.1-84.5,85s37.8,85,84.5,85s84.5-38.1,84.5-85S-262.1,0.6-308.8,0.6z
			 M-260.4,144.6h-64c-1,0-1.8-0.8-1.8-1.8l0.2-8.9c0-1,0.8-1.7,1.8-1.3h45.6c1.2-0.4,2.1-1.6,1.7-2.8l-28.1-78.3
			c-0.6-1.6-2.7-1.6-3.3,0l-33.2,92c-0.3,0.7-0.9,1.2-1.7,1.1h-9.8c-1.2,0-2.1-1.2-1.7-2.3L-308.4,14c0.6-1.6,2.7-1.6,3.3,0
			l46.3,128.3C-258.4,143.4-259.2,144.7-260.4,144.6z"/>
	</g>
</g>
<linearGradient id="SVGID_8_" gradientUnits="userSpaceOnUse" x1="1.7171" y1="86.4" x2="171.0829" y2="86.4">
	<stop  offset="0" style="stop-color:#2484C6"/>
	<stop  offset="1" style="stop-color:#00529E"/>
</linearGradient>
<path class="st12" d="M151.7,1.7H21.1c-10.7,0-19.4,8.7-19.4,19.4v130.5c0,10.7,8.7,19.4,19.4,19.4h130.5c10.7,0,19.4-8.7,19.4-19.4
	V21.1C171.1,10.4,162.4,1.7,151.7,1.7z M138,161.5H65.8v-19.6H116L86.4,60.6l-35.7,98.2c-0.6,1.7-2.2,2.8-4,2.8H34.8
	c-2.9,0-4.9-2.9-4-5.6L82.4,14.1c1.3-3.7,6.6-3.7,7.9,0l51.6,141.8C142.9,158.6,140.9,161.5,138,161.5z"/>
<linearGradient id="SVGID_9_" gradientUnits="userSpaceOnUse" x1="-185.0146" y1="86.1073" x2="-15.6488" y2="86.1073">
	<stop  offset="0" style="stop-color:#39B54A"/>
	<stop  offset="6.219307e-02" style="stop-color:#26A547"/>
	<stop  offset="0.168" style="stop-color:#019845"/>
	<stop  offset="0.2809" style="stop-color:#009444"/>
	<stop  offset="0.6685" style="stop-color:#009444"/>
	<stop  offset="1" style="stop-color:#39B54A"/>
</linearGradient>
<path class="st13" d="M-35.1,1.4h-130.5c-10.7,0-19.4,8.7-19.4,19.4v130.5c0,10.7,8.7,19.4,19.4,19.4h130.5
	c10.7,0,19.4-8.7,19.4-19.4V20.8C-15.6,10.1-24.3,1.4-35.1,1.4z M-48.7,161.2H-121v-19.6h50.2l-29.6-81.4l-35.7,98.2
	c-0.6,1.7-2.2,2.8-4,2.8h-11.9c-2.9,0-4.9-2.9-4-5.6l51.6-141.8c1.3-3.7,6.6-3.7,7.9,0l51.6,141.8
	C-43.8,158.3-45.8,161.2-48.7,161.2z"/>
<g>
	<path d="M-339.1-120.5h-75.8c-1.8,0-3.3-1.5-3.3-3.3v-14.4c0-1.8,1.5-3.3,3.3-3.3h45.8c2.3,0,3.9-2.3,3.1-4.4l-27-74.3
		c-1.1-2.9-5.1-2.9-6.2,0l-35.5,97.5c-0.5,1.3-1.7,2.2-3.1,2.2h-15.3c-2.3,0-3.9-2.3-3.1-4.4l57-156.8c1.1-2.9,5.1-2.9,6.2,0
		l57,156.8C-335.2-122.7-336.8-120.5-339.1-120.5z"/>
</g>
</svg>
